<svg id="Layer_1" data-name="Layer 1" xmlns="http://www.w3.org/2000/svg" viewBox="0 0 376.35 186"><defs><style>.cls-1{fill:#409dad;}.cls-2{fill:#004568;}.cls-3{fill:#fff;}.cls-4,.cls-6{fill:#f7f6f5;}.cls-5{fill:#611c35;}.cls-6{font-size:12.9px;font-family:SulphurPoint-Regular, Sulphur Point;letter-spacing:-0.02em;}.cls-7{letter-spacing:0em;}.cls-8{letter-spacing:-0.01em;}</style></defs><path class="cls-1" d="M318.69,159.81V84.5h20.77a8.16,8.16,0,0,0,5.78-2,2.76,2.76,0,0,0,0-4l-84-75.76a8,8,0,0,0-5.46-2h-.68a8,8,0,0,0-5.41,2l-84,75.76a2.73,2.73,0,0,0,0,4,8.13,8.13,0,0,0,5.78,2h20.77v75.39h.54c-22,5.89-41.56,14.77-57.3,25.84,33.63-12.57,75.26-20,120.34-20s86.71,7.45,120.34,20C360.43,174.62,340.82,165.7,318.69,159.81Z"/><path class="cls-2" d="M300.38,12.5c5.48-2.69,11-3.65,16.36-2.62,5.85,1.13,9.46,4.34,10.47,9.57A14.29,14.29,0,0,1,326,28.23a30.42,30.42,0,0,1-5,7.64c-2,2.17-4.7,4.88-8.06,8-3.16,2.94-5.13,5.34-6,7.3a8.42,8.42,0,0,0-.9,5.09c.46,2.36-.1,3.57-1.65,3.63a2,2,0,0,1-1.78-.74,10.09,10.09,0,0,1-1.12-3.55,10.94,10.94,0,0,1,.57-5.86c.76-2.11,2.64-4.95,5.78-8.68,3.44-4.13,5.62-7.64,6.36-10.33a17.07,17.07,0,0,0,.43-7.82,9.07,9.07,0,0,0-4.77-6.55c-2.51-1.36-5.32-1.3-8.39.08A16.3,16.3,0,0,0,294,22.41a9.5,9.5,0,0,0-1.47,7.08,5.72,5.72,0,0,0,1.57,3.14,2.57,2.57,0,0,0,2.71.71,3.49,3.49,0,0,0,.87-.4,2.77,2.77,0,0,1,.79-.39,3.54,3.54,0,0,1,2.15.08A1.75,1.75,0,0,1,302,33.94a3.13,3.13,0,0,1-1.15,3,8,8,0,0,1-3.55,1.85,6.37,6.37,0,0,1-5.5-1.14c-1.65-1.21-2.74-3.25-3.3-6.14a14.51,14.51,0,0,1,1.9-10C292.36,17.82,295.63,14.83,300.38,12.5Zm6,52a6.89,6.89,0,0,1,3.75,1.24,5.21,5.21,0,0,1,2.33,3.42,2.66,2.66,0,0,1-1.07,2.75,4.71,4.71,0,0,1-3.39.91,6.84,6.84,0,0,1-3.72-1.48,4.85,4.85,0,0,1-2-2.92,2.86,2.86,0,0,1,.86-2.78A4.52,4.52,0,0,1,306.35,64.53Z"/><path class="cls-2" d="M.63,72.36a2.63,2.63,0,0,1,2.63-2.63h104a2.64,2.64,0,0,1,2.63,2.63v71.15a2.64,2.64,0,0,1-2.63,2.63H3.26a2.63,2.63,0,0,1-2.63-2.63Zm43.53,88.78a2.64,2.64,0,0,0,2.64,2.63h60.45a2.64,2.64,0,0,0,2.63-2.63v-6.26a2.65,2.65,0,0,0-2.63-2.63H46.8a2.65,2.65,0,0,0-2.64,2.63Zm90.42-7.2a15.82,15.82,0,1,0,15.81,15.81,15.83,15.83,0,0,0-15.81-15.81Zm-111.66,0a15.82,15.82,0,1,0,15.81,15.81,15.82,15.82,0,0,0-15.81-15.81ZM173,131.42v34.91A2.64,2.64,0,0,1,170.4,169h-8.19a4,4,0,0,1-3.65-2.43c-.93-2.74-2.79-20.5-22.45-20.5H119.2a2.64,2.64,0,0,1-2.64-2.64V91.58a2.65,2.65,0,0,1,2.64-2.64h27.72a5.11,5.11,0,0,1,4,2.28l20.8,35.3A11.33,11.33,0,0,1,173,131.42ZM157.21,117.7,146,98.53c-1-1.67-1.57-2.32-2.85-2.32H127.3A2.31,2.31,0,0,0,125,98.52v20.22a2.3,2.3,0,0,0,2.31,2.31h28.22C157.32,121.05,158.4,119.72,157.21,117.7Z"/><polygon class="cls-3" points="60.81 88.38 60.79 88.42 75.75 128 75.75 128 77.49 127.81 77.57 127.81 62.61 88.23 62.53 88.24 60.81 88.38"/><path class="cls-3" d="M60.35,87.26l1.74-.19s.43-7.07-3.43-6.67S60.35,87.26,60.35,87.26Z"/><path class="cls-3" d="M78,129l-1.75.18s-.42,7.08,3.43,6.68C83.38,135.48,78,129,78,129Z"/><polygon class="cls-4" points="64.36 87.23 64.33 87.26 72.2 128.84 72.2 128.84 73.95 128.96 74.02 128.97 66.16 87.39 66.08 87.39 64.36 87.23"/><path class="cls-4" d="M64.1,86l1.75.13s1.65-6.9-2.22-7.17S64.1,86,64.1,86Z"/><path class="cls-4" d="M74.25,130.19l-1.75-.13s-1.64,6.9,2.22,7.17C78.41,137.53,74.25,130.19,74.25,130.19Z"/><path class="cls-3" d="M68.48,92.31H37.29A1.3,1.3,0,0,0,36,93.61v7.79a1.3,1.3,0,0,0,1.29,1.3h1.36L39.89,130a4,4,0,0,0,3.9,3.85H62a3.8,3.8,0,0,0,2.12-.66,4.08,4.08,0,0,0,1.78-3.18l1.24-27.35h1.36a1.3,1.3,0,0,0,1.3-1.3V93.61A1.3,1.3,0,0,0,68.48,92.31Zm-9.1,2.59H62v5.2h-2.6Zm-5.19,0h2.6v5.2h-2.6Zm-5.2,0h2.6v5.2H49Zm-5.2,0h2.6v5.2h-2.6Zm-2.6,5.2h-2.6V94.9h2.6Zm22.09,29.84a1.4,1.4,0,0,1-1.3,1.35H43.79a1.16,1.16,0,0,1-.48-.11,1.49,1.49,0,0,1-.82-1.25l-.18-4-.94-20.67h23ZM64.4,105.3h-23l-.12-2.6H64.52Zm2.78-5.2h-2.6V94.9h2.6Z"/><rect class="cls-3" x="45.09" y="126.09" width="2.6" height="2.6"/><rect class="cls-3" x="50.29" y="126.09" width="2.6" height="2.6"/><rect class="cls-2" x="64.58" y="94.9" width="2.6" height="5.2"/><path class="cls-3" d="M53.25,108.23l1.09,1.41c2.06,2.72,3.1,4.94,3.08,6.72a4.25,4.25,0,0,1-8.5-.08c0-1.79,1.11-4,3.22-6.66l.27-.34Z"/><path class="cls-4" d="M228,60.58c-1.91,0-5.17,1.68-5.62,3.62l-18.7,80.17c-.53,2.26,2.3,7.37,4.56,7.9l65.59,15.3c2.26.54,6.35-2.3,6.88-4.56l18.7-80.17c.53-2.26-2.7-6.34-5-6.87l-12.74-2.23s-1.69,9.89-4.13,11.41-2.31,1.72-5.11,1.07l-25.51-6c-5.78-1.35-6.9-5.68-5.56-11.46l1-4.1S228.29,60.58,228,60.58Z"/><path class="cls-5" d="M274,170.89a10.7,10.7,0,0,1-2.37-.27l-63.44-14.8a10.43,10.43,0,0,1-7.77-12.5L218.5,65.78A10.44,10.44,0,0,1,231,58l12.34,2.88a3.16,3.16,0,0,1,2.36,3.81l-1.64,7a4.07,4.07,0,0,0,3,4.89l24.67,5.76a4,4,0,0,0,3.07-.51,4.06,4.06,0,0,0,1.82-2.53l1.64-7a3.18,3.18,0,0,1,3.81-2.36l12.33,2.87h0a10.43,10.43,0,0,1,7.77,12.5l-18.09,77.54A10.43,10.43,0,0,1,274,170.89Zm-45.88-108a4.17,4.17,0,0,0-4.06,3.21l-18.51,79.35a4.17,4.17,0,0,0,3.11,5l64.92,15.15a4.17,4.17,0,0,0,5-3.11l18.51-79.35a4.17,4.17,0,0,0-3.11-5L284.5,76,283.56,80A10.66,10.66,0,0,1,270.77,88l-25.25-5.89a10.66,10.66,0,0,1-7.94-12.79l.94-4.06L229.06,63A3.91,3.91,0,0,0,228.11,62.91Zm-.11,72a3.6,3.6,0,0,0-2.7-4.34h0a3.62,3.62,0,1,0,2.73,4.35Zm4.94-21.14a3.63,3.63,0,0,0-2.7-4.35h0a3.62,3.62,0,1,0,2.74,4.36Zm4.93-21.15a3.62,3.62,0,0,0-2.7-4.35h0a3.62,3.62,0,1,0,2.74,4.36Zm32.36,52.14a3.46,3.46,0,0,0-2.78-4l-31.72-7.4a3.29,3.29,0,1,0-1.49,6.38l31.72,7.4A3.46,3.46,0,0,0,270.23,144.74Zm4.93-21.14a3.51,3.51,0,0,0-2.75-4.13l-31.72-7.4a3.4,3.4,0,1,0-1.55,6.61l31.72,7.4A3.52,3.52,0,0,0,275.16,123.6Zm4.93-21.15a3.51,3.51,0,0,0-2.75-4.13l-31.72-7.4a3.4,3.4,0,1,0-1.54,6.61l31.72,7.4A3.5,3.5,0,0,0,280.09,102.45Zm-6.68-27.11,1.85-7.93a3.16,3.16,0,0,0-2.36-3.8l-18.51-4.32a3.16,3.16,0,0,0-3.8,2.37l-1.85,7.93a3.16,3.16,0,0,0,2.36,3.8l18.51,4.32A3.18,3.18,0,0,0,273.41,75.34Z"/><path class="cls-4" d="M310.41,122l-2.6-4.25a5.2,5.2,0,0,0-7.1-1.75l-43.59,26.24L254.33,145,248,154.85a1.88,1.88,0,0,0,.08,1.78,1.84,1.84,0,0,0,.84.75,1.65,1.65,0,0,0,.71.16l11.72-1,3.69-1.2,43.58-26.27a5.21,5.21,0,0,0,1.77-7.1Z"/><path class="cls-2" d="M310.41,122l-2.6-4.25a5.2,5.2,0,0,0-7.1-1.75l-3.5,2.11,7.92,13.11,3.51-2.12a5.21,5.21,0,0,0,1.77-7.1Z"/><polygon class="cls-2" points="257.12 142.23 265.06 155.36 301.93 133.15 293.96 120.06 257.12 142.23"/><path class="cls-2" d="M248,154.85a1.88,1.88,0,0,0,.92,2.53,1.65,1.65,0,0,0,.71.16l11.72-1-7-11.6Z"/><path class="cls-5" d="M188.89,2.13,182.6,3.31l.3,1.62a6.39,6.39,0,0,1-2.12,11.75l-4.19.79A6.39,6.39,0,0,1,170.33,7.3L170,5.68l-24.24,4.57.3,1.61A6.39,6.39,0,0,1,144,23.62l-4.19.79a6.4,6.4,0,0,1-6.26-10.18l-.3-1.61-6.29,1.19a6.4,6.4,0,0,0-5.1,7.47l9.67,51.33A6.42,6.42,0,0,0,139,77.72l62-11.68a6.4,6.4,0,0,0,5.1-7.47L196.36,7.23A6.4,6.4,0,0,0,188.89,2.13Zm13,57.23a2.13,2.13,0,0,1-1.7,2.49l-62,11.68a2.14,2.14,0,0,1-2.49-1.71l-5.29-28.09,66.17-12.46Z"/><path class="cls-2" d="M139,20.21l4.19-.78a2.14,2.14,0,0,0-.79-4.2l-1.18-6.29a2.13,2.13,0,0,0-4.19.79L138.18,16a2.13,2.13,0,1,0,.79,4.19Z"/><path class="cls-2" d="M175.8,13.28l4.19-.79a2.14,2.14,0,0,0-.79-4.2L178,2a2.13,2.13,0,0,0-4.19.79L175,9.08a2.14,2.14,0,1,0,.79,4.2Z"/><text class="cls-6" transform="translate(148.95 33.4) rotate(-10.67)">D<tspan class="cls-7" x="7.37" y="0">a</tspan><tspan class="cls-8" x="15.04" y="0">y</tspan><tspan class="cls-7" x="21.68" y="0">s</tspan></text><path class="cls-3" d="M201.84,59.36a2.13,2.13,0,0,1-1.7,2.49l-62,11.68a2.14,2.14,0,0,1-2.49-1.71l-5.29-28.09,66.17-12.46Z"/><path class="cls-2" d="M153.67,65l-2.85-15.12-.88,2.39-2.95.56,2.49-6.76,3.1-.58,3.59,19Zm3.89-7.91-.39-2.06L162.82,54l.39,2.06Zm10.09,5.28L164.8,47.28l-.89,2.39-2.94.55,2.49-6.75,3.09-.59,3.59,19Zm10.75-1.88a5.84,5.84,0,0,1-2.32,0,6.22,6.22,0,0,1-2.11-.86,6.13,6.13,0,0,1-1.61-1.6A5.58,5.58,0,0,1,171.5,56L170,48a5.37,5.37,0,0,1,0-2.26,5.82,5.82,0,0,1,.91-2.07,6.33,6.33,0,0,1,1.65-1.57,5.94,5.94,0,0,1,2.15-.87l1.09-.2a6.16,6.16,0,0,1,4.45.88,5.29,5.29,0,0,1,1.59,1.57,5.73,5.73,0,0,1,.85,2.12l1.51,8a5.88,5.88,0,0,1,0,2.29,5.68,5.68,0,0,1-.91,2,6.22,6.22,0,0,1-1.66,1.57,6.11,6.11,0,0,1-2.17.87Zm1.69-14.46a3,3,0,0,0-1.34-2,3.17,3.17,0,0,0-2.43-.5l-1.08.21a3.11,3.11,0,0,0-2.06,1.35,3,3,0,0,0-.54,2.34l1.51,8a3,3,0,0,0,1.35,2,3.15,3.15,0,0,0,2.41.51l1.08-.21a3.11,3.11,0,0,0,2.08-1.34,3,3,0,0,0,.52-2.35Z"/></svg>